# xmcd CD database file generated by libcdaudio 0.99.12p2
# 
# Track frame offsets:
#       182
#       16362
#       34405
#       46250
#       59315
#       71695
#       83962
#       101312
#       112082
#       122357
#       136075
#       148420
#       162410
#       177595
#       191795
#       201142
#       224812
# 
# Disc length: 3176 seconds
# 
# Revision: 4
# Processed by: cddbd v1.5.2PL0 Copyright (c) Steve Scherf et al.
# Submitted via: libcdaudio 0.99.12p2
# 
DISCID=070c6611
DTITLE=John Lee Hooker - Mad Man Blues
DYEAR=1989
DGENRE=Blues
TTITLE0=My First Wife Left Me
TTITLE1=Wednesday Evening Blues
TTITLE2=Little Wheel
TTITLE3=Hobo Blues
TTITLE4=I'm In The Mood
TTITLE5=Crawling King Snake
TTITLE6=Leroy Carr - Blues Before Sunrise
TTITLE7=Maudie
TTITLE8=Want Ad Blues
TTITLE9=I Don't Want Your Money
TTITLE10=Mad Man Blues
TTITLE11=M. Merriweather - Worried Life Blues
TTITLE12=Just Me And My Telephone
TTITLE13=Dreamin' Blues
TTITLE14=Hey Boogie (Boogie Now)
TTITLE15=The Waterfront
TTITLE16=Stella Mae
EXTD=
EXTT0=
EXTT1=
EXTT2=
EXTT3=
EXTT4=
EXTT5=
EXTT6=
EXTT7=
EXTT8=
EXTT9=
EXTT10=
EXTT11=
EXTT12=
EXTT13=
EXTT14=
EXTT15=
EXTT16=
PLAYORDER=
